<mxfile host="app.diagrams.net" agent="Mozilla/5.0 (Windows NT 10.0; Win64; x64) AppleWebKit/537.36 (KHTML, like Gecko) Chrome/131.0.0.0 Safari/537.36" version="25.0.0">
  <diagram name="Business Process Models" id="zT4rxsyt8w8oqT2ja7pj">
    <mxGraphModel dx="1221" dy="725" grid="1" gridSize="10" guides="1" tooltips="1" connect="1" arrows="1" fold="1" page="1" pageScale="1" pageWidth="827" pageHeight="1169" math="0" shadow="0">
      <root>
        <mxCell id="0" />
        <mxCell id="1" parent="0" />
        <mxCell id="_HofpforTsRKmwX_-Kha-1" value="Receive Order" style="rounded=1;whiteSpace=wrap;html=1;" vertex="1" parent="1">
          <mxGeometry x="50" y="40" width="120" height="60" as="geometry" />
        </mxCell>
        <mxCell id="_HofpforTsRKmwX_-Kha-2" value="Check Stock" style="rounded=1;whiteSpace=wrap;html=1;" vertex="1" parent="1">
          <mxGeometry x="250" y="40" width="140" height="60" as="geometry" />
        </mxCell>
        <mxCell id="_HofpforTsRKmwX_-Kha-3" value="Goods Available?" style="shape=rhombus;whiteSpace=wrap;html=1;" vertex="1" parent="1">
          <mxGeometry x="450" y="40" width="60" height="60" as="geometry" />
        </mxCell>
        <mxCell id="_HofpforTsRKmwX_-Kha-20" value="" style="edgeStyle=orthogonalEdgeStyle;rounded=0;orthogonalLoop=1;jettySize=auto;html=1;" edge="1" parent="1" source="_HofpforTsRKmwX_-Kha-4" target="_HofpforTsRKmwX_-Kha-5">
          <mxGeometry relative="1" as="geometry" />
        </mxCell>
        <mxCell id="_HofpforTsRKmwX_-Kha-4" value="Retrieve Goods" style="rounded=1;whiteSpace=wrap;html=1;" vertex="1" parent="1">
          <mxGeometry x="600" y="40" width="140" height="60" as="geometry" />
        </mxCell>
        <mxCell id="_HofpforTsRKmwX_-Kha-5" value="Order Materials" style="rounded=1;whiteSpace=wrap;html=1;" vertex="1" parent="1">
          <mxGeometry x="600" y="160" width="140" height="60" as="geometry" />
        </mxCell>
        <mxCell id="_HofpforTsRKmwX_-Kha-6" value="Assemble Order" style="rounded=1;whiteSpace=wrap;html=1;" vertex="1" parent="1">
          <mxGeometry x="800" y="40" width="140" height="60" as="geometry" />
        </mxCell>
        <mxCell id="_HofpforTsRKmwX_-Kha-7" value="Ship Order" style="rounded=1;whiteSpace=wrap;html=1;" vertex="1" parent="1">
          <mxGeometry x="1000" y="40" width="120" height="60" as="geometry" />
        </mxCell>
        <mxCell id="_HofpforTsRKmwX_-Kha-8" value="Issue Invoice" style="rounded=1;whiteSpace=wrap;html=1;" vertex="1" parent="1">
          <mxGeometry x="1200" y="40" width="120" height="60" as="geometry" />
        </mxCell>
        <mxCell id="_HofpforTsRKmwX_-Kha-9" value="Receive Payment" style="rounded=1;whiteSpace=wrap;html=1;" vertex="1" parent="1">
          <mxGeometry x="1400" y="40" width="140" height="60" as="geometry" />
        </mxCell>
        <mxCell id="_HofpforTsRKmwX_-Kha-10" value="" style="ellipse;whiteSpace=wrap;html=1;" vertex="1" parent="1">
          <mxGeometry x="1600" y="55" width="30" height="30" as="geometry" />
        </mxCell>
        <mxCell id="_HofpforTsRKmwX_-Kha-11" value="" style="edgeStyle=orthogonalEdgeStyle;rounded=0;orthogonalLoop=1;jettySize=auto;html=1;" edge="1" parent="1" source="_HofpforTsRKmwX_-Kha-1" target="_HofpforTsRKmwX_-Kha-2">
          <mxGeometry relative="1" as="geometry" />
        </mxCell>
        <mxCell id="_HofpforTsRKmwX_-Kha-12" value="Yes" style="edgeStyle=orthogonalEdgeStyle;html=1;" edge="1" parent="1" source="_HofpforTsRKmwX_-Kha-3" target="_HofpforTsRKmwX_-Kha-4">
          <mxGeometry relative="1" as="geometry" />
        </mxCell>
        <mxCell id="_HofpforTsRKmwX_-Kha-13" value="No" style="edgeStyle=orthogonalEdgeStyle;html=1;exitX=0.5;exitY=1;exitDx=0;exitDy=0;entryX=0;entryY=0.5;entryDx=0;entryDy=0;" edge="1" parent="1" source="_HofpforTsRKmwX_-Kha-3" target="_HofpforTsRKmwX_-Kha-5">
          <mxGeometry relative="1" as="geometry">
            <mxPoint x="420" y="145" as="sourcePoint" />
            <mxPoint x="580" y="235" as="targetPoint" />
          </mxGeometry>
        </mxCell>
        <mxCell id="_HofpforTsRKmwX_-Kha-14" value="" style="edgeStyle=orthogonalEdgeStyle;html=1;" edge="1" parent="1" source="_HofpforTsRKmwX_-Kha-5" target="_HofpforTsRKmwX_-Kha-6">
          <mxGeometry relative="1" as="geometry" />
        </mxCell>
        <mxCell id="_HofpforTsRKmwX_-Kha-15" value="" style="edgeStyle=orthogonalEdgeStyle;html=1;" edge="1" parent="1" source="_HofpforTsRKmwX_-Kha-4" target="_HofpforTsRKmwX_-Kha-6">
          <mxGeometry relative="1" as="geometry" />
        </mxCell>
        <mxCell id="_HofpforTsRKmwX_-Kha-16" value="" style="edgeStyle=orthogonalEdgeStyle;html=1;" edge="1" parent="1" source="_HofpforTsRKmwX_-Kha-6" target="_HofpforTsRKmwX_-Kha-7">
          <mxGeometry relative="1" as="geometry" />
        </mxCell>
        <mxCell id="_HofpforTsRKmwX_-Kha-17" value="" style="edgeStyle=orthogonalEdgeStyle;html=1;" edge="1" parent="1" source="_HofpforTsRKmwX_-Kha-7" target="_HofpforTsRKmwX_-Kha-8">
          <mxGeometry relative="1" as="geometry" />
        </mxCell>
        <mxCell id="_HofpforTsRKmwX_-Kha-18" value="" style="edgeStyle=orthogonalEdgeStyle;html=1;" edge="1" parent="1" source="_HofpforTsRKmwX_-Kha-8" target="_HofpforTsRKmwX_-Kha-9">
          <mxGeometry relative="1" as="geometry" />
        </mxCell>
        <mxCell id="_HofpforTsRKmwX_-Kha-19" value="" style="edgeStyle=orthogonalEdgeStyle;html=1;" edge="1" parent="1" source="_HofpforTsRKmwX_-Kha-9" target="_HofpforTsRKmwX_-Kha-10">
          <mxGeometry relative="1" as="geometry" />
        </mxCell>
      </root>
    </mxGraphModel>
  </diagram>
</mxfile>
